HIERARCHY
ROOT Hips
{
	OFFSET -3.958830 18.904000 13.208200
	CHANNELS 6 Xposition Yposition Zposition Zrotation Yrotation Xrotation 
	JOINT LHipJoint
	{
		OFFSET 0.000000 0.000000 0.000000
		CHANNELS 3 Zrotation Yrotation Xrotation
		JOINT LeftUpLeg
		{
			OFFSET 1.800000 -1.400000 0.085000
			CHANNELS 3 Zrotation Yrotation Xrotation
			JOINT LeftLeg
			{
				OFFSET 2.215000 -6.000000 0.000000
				CHANNELS 3 Zrotation Yrotation Xrotation
				JOINT LeftFoot
				{
					OFFSET 2.500000 -6.900000 0.000000
					CHANNELS 3 Zrotation Yrotation Xrotation
					JOINT LeftToeBase
					{
						OFFSET 0.200000 -0.500000 1.950000
						CHANNELS 3 Zrotation Yrotation Xrotation
						End Site
						{
							OFFSET 0.000000 0.000000 0.000000
						}
					}
				}
			}
		}
	}
	JOINT RHipJoint
	{
		OFFSET 0.000000 0.000000 0.000000
		CHANNELS 3 Zrotation Yrotation Xrotation
		JOINT RightUpLeg
		{
			OFFSET -1.800000 -1.400000 0.085000
			CHANNELS 3 Zrotation Yrotation Xrotation
			JOINT RightLeg
			{
				OFFSET -2.215000 -6.000000 0.000000
				CHANNELS 3 Zrotation Yrotation Xrotation
				JOINT RightFoot
				{
					OFFSET -2.500000 -6.900000 0.000000
					CHANNELS 3 Zrotation Yrotation Xrotation
					JOINT RightToeBase
					{
						OFFSET -0.200000 -0.500000 1.950000
						CHANNELS 3 Zrotation Yrotation Xrotation
						End Site
						{
							OFFSET 0.000000 0.000000 0.000000
						}
					}
				}
			}
		}
	}
	JOINT LowerBack
	{
		OFFSET 0.000000 0.000000 0.000000
		CHANNELS 3 Zrotation Yrotation Xrotation
		JOINT Spine
		{
			OFFSET -0.087000 1.940000 -0.288900
			CHANNELS 3 Zrotation Yrotation Xrotation
			JOINT Spine1
			{
				OFFSET 0.000000 1.950000 0.060000
				CHANNELS 3 Zrotation Yrotation Xrotation
				JOINT Neck
				{
					OFFSET 0.000000 0.000000 0.000000
					CHANNELS 3 Zrotation Yrotation Xrotation
					JOINT Neck1
					{
						OFFSET 0.000000 1.600000 0.340000
						CHANNELS 3 Zrotation Yrotation Xrotation
						JOINT Head
						{
							OFFSET 0.000000 1.667000 -0.240000
							CHANNELS 3 Zrotation Yrotation Xrotation
							End Site
							{
								OFFSET 0.000000 0.000000 0.000000
							}
						}
					}
				}
				JOINT LeftShoulder
				{
					OFFSET 0.000000 0.000000 0.000000
					CHANNELS 3 Zrotation Yrotation Xrotation
					JOINT LeftArm
					{
						OFFSET 2.700000 1.550000 -0.730000
						CHANNELS 3 Zrotation Yrotation Xrotation
						JOINT LeftForeArm
						{
							OFFSET 5.450000 0.000000 0.000000
							CHANNELS 3 Zrotation Yrotation Xrotation
							JOINT LeftHand
							{
								OFFSET 3.450000 0.000000 0.000000
								CHANNELS 3 Zrotation Yrotation Xrotation
								JOINT LeftHandIndex1
								{
									OFFSET 0.750000 0.000000 0.000000
									CHANNELS 3 Zrotation Yrotation Xrotation
									End Site
									{
										OFFSET 0.000000 0.000000 0.000000
									}
								}
							}
						}
					}
				}
				JOINT RightShoulder
				{
					OFFSET 0.000000 0.000000 0.000000
					CHANNELS 3 Zrotation Yrotation Xrotation
					JOINT RightArm
					{
						OFFSET -2.700000 1.550000 -0.730000
						CHANNELS 3 Zrotation Yrotation Xrotation
						JOINT RightForeArm
						{
							OFFSET -5.450000 0.000000 0.000000
							CHANNELS 3 Zrotation Yrotation Xrotation
							JOINT RightHand
							{
								OFFSET -3.450000 0.000000 0.000000
								CHANNELS 3 Zrotation Yrotation Xrotation
								JOINT RightHandIndex1
								{
									OFFSET -0.750000 0.000000 0.000000
									CHANNELS 3 Zrotation Yrotation Xrotation
									End Site
									{
										OFFSET 0.000000 0.000000 0.000000
									}
								}
							}
						}
					}
				}
			}
		}
	}
}
MOTION
Frames: 7
Frame Time: 0.016667
0.279960 17.404420 -2.721390 -19.559450 -21.149001 -2.166217 -15.135055 12.166018 1.031419 12.403889 -0.014758 -8.583815 -3.335458 7.354688 20.781739 -0.367344 5.088060 2.955891 0.046770 -0.239230 0.031660 18.865161 -7.235552 7.354709 -6.842582 30.352184 -73.186779 -4.542575 -37.498430 125.261860 -4.655884 -21.475167 -1.300342 -0.104230 0.413980 0.087290 -4.762825 -2.506149 -8.961157 26.524536 -13.384451 42.888027 -10.457969 -4.655357 0.885824 3.112715 -9.102264 -8.340902 -18.034192 10.624579 29.983167 -5.771310 5.926960 -9.548700 -14.002179 5.544095 0.220191 -24.288283 4.845943 -4.664562 -92.192748 -80.859254 71.379173 -4.350164 1.736051 0.519930 0.133330 -0.142330 0.125410 7.435601 -1.165837 5.146730 40.973058 -7.455382 -14.310256 169.527487 76.984202 160.499319 1.683840 -1.672529 -0.356140 0.350070 0.191190 -0.146560 
0.231180 17.292430 -2.701790 -17.930701 -24.295819 -3.338384 -15.163877 12.396415 1.143681 11.122920 0.057343 -9.391235 -3.277940 8.215915 25.321107 -0.240317 5.543644 2.748564 0.053230 -0.239240 0.022200 18.759823 -7.390726 7.091841 -3.533081 29.954159 -65.366712 -2.372500 -39.134806 123.966561 -4.724939 -21.523064 -1.304258 -0.136960 0.349640 0.079640 -4.616425 -2.788834 -8.946173 23.680279 -11.886545 44.234992 -10.561102 -4.581290 -1.198001 3.340596 -9.679719 -8.969879 -20.519549 11.934604 31.684285 -5.110020 5.875300 -9.528800 -15.691398 3.852022 0.270312 -24.851368 4.374475 -6.257790 -51.723908 -79.339628 36.398433 -3.745550 3.314936 0.558660 0.062370 -0.103860 0.120080 8.867856 1.123545 5.720367 45.839348 -7.279676 -18.619516 130.882555 76.112838 112.672167 1.822402 -0.159443 -0.323090 0.311710 0.185350 -0.142350 
0.205550 17.196230 -2.616120 -17.646294 -26.247983 -3.403329 -15.129396 12.552445 1.288820 10.531779 -0.278605 -10.661366 -2.905145 8.776387 29.471872 -0.167105 6.017869 2.534973 0.100430 -0.225890 0.076840 18.710031 -7.658851 6.706094 0.145829 27.495977 -56.002722 1.528919 -40.374922 118.451137 -4.691513 -21.173691 -1.273003 -0.142670 0.271800 0.067800 -4.613913 -2.883298 -8.813594 24.355124 -12.013019 42.948545 -12.028574 -4.754526 -3.276309 3.785930 -10.271661 -9.020233 -23.703837 13.194193 33.854521 -4.239310 5.425460 -10.224700 -17.942864 3.883648 -0.979798 -26.763976 2.628416 -7.524769 -35.925111 -73.968564 22.001278 -3.572814 3.322234 0.635020 -0.025250 -0.054500 0.111200 10.124996 1.031944 6.293719 49.451935 -6.035041 -10.433184 91.579179 82.394535 64.631768 3.824703 1.830359 -0.313000 0.297580 0.165640 -0.165980 
0.136560 17.096660 -2.518070 -15.941553 -28.131524 -3.361986 -15.133399 12.683500 1.549852 8.671435 -0.956055 -12.900075 -2.306452 9.346520 34.619242 -0.010999 6.619494 2.292411 0.114390 -0.208940 0.067180 18.612424 -7.855164 6.295997 1.065511 24.285324 -47.643188 4.788777 -43.790115 115.957224 -4.794819 -21.317133 -1.272038 -0.165830 0.248980 0.069150 -4.465943 -3.178097 -8.775342 22.615999 -10.160420 40.025597 -11.108201 -4.006086 -5.443738 3.462151 -10.292549 -9.272082 -26.250264 15.016854 37.701514 -2.614950 5.516520 -9.332510 -19.401902 4.505253 -1.231379 -30.864376 1.683833 -7.798690 -32.810521 -71.077765 18.684302 -3.522961 3.270949 0.670430 -0.064890 -0.014510 0.120480 12.267037 0.714827 6.314020 50.802763 -6.683867 -12.229658 57.735699 73.996053 34.807487 2.290297 -1.569297 -0.282420 0.293950 0.160020 -0.154110 
0.061710 16.993540 -2.424410 -14.199244 -28.965634 -2.451914 -15.130163 12.728585 1.874131 6.582142 -2.053722 -14.998889 -1.973754 9.403689 37.805705 0.077228 6.957171 2.145201 0.107160 -0.211400 0.088510 18.537867 -8.056920 5.918304 1.176353 20.234341 -40.378783 9.576709 -46.303722 109.761147 -4.737565 -20.954796 -1.206061 -0.190480 0.217280 0.081340 -4.311092 -3.410697 -8.776711 20.476892 -8.368377 34.925377 -10.317169 -3.416957 -5.992277 3.630810 -9.368783 -9.021582 -25.292810 15.169204 41.872462 -3.532290 7.279910 -8.055610 -20.713336 5.262736 -1.306890 -34.705325 1.124602 -7.758355 -35.802601 -70.748788 20.389172 -3.544449 3.249668 0.683540 -0.057970 0.014430 0.098950 13.150595 -0.488713 5.574186 53.334358 -6.389289 -14.280531 39.003143 61.205575 18.124061 2.116947 -1.545378 -0.262980 0.266400 0.159820 -0.175950 
-0.068820 16.868700 -2.332970 -10.462521 -30.622027 -1.914729 -15.198926 12.714509 2.386588 3.860984 -3.409903 -16.895359 -3.828213 10.383537 40.120086 0.195468 7.506339 1.992844 0.045370 -0.295590 0.077040 18.431943 -8.310007 5.433512 0.818659 16.086683 -33.991444 10.893881 -43.066055 103.144829 -4.350201 -19.607234 -0.980938 -0.220870 0.286840 0.075790 -3.975822 -3.623565 -8.861191 14.036497 -5.178405 28.609766 -7.783821 -2.394242 -5.091641 3.041461 -7.982730 -8.711919 -22.003795 14.497096 43.541316 -3.507320 9.496900 -4.479850 -20.817167 6.029143 -0.767788 -39.506959 0.430793 -7.124480 -42.582248 -73.529008 25.934380 -3.644148 3.232055 0.668890 0.015240 -0.031910 0.099780 14.608247 -1.886665 4.593856 55.784298 -6.064033 -14.586975 26.916376 49.885496 9.274095 2.101499 -1.345364 -0.318260 0.278430 0.176650 -0.200630 
-0.194850 16.756600 -2.252390 -8.095539 -34.030122 -0.255348 -15.250838 12.542161 2.816250 3.099120 -4.465787 -19.551061 -6.495124 12.139264 42.357807 0.438609 8.203842 1.802469 0.019790 -0.270310 -0.037040 18.391610 -8.630090 4.880477 1.574685 13.305320 -28.823628 8.703938 -38.074398 99.812147 -3.980374 -18.419451 -0.730635 -0.206300 0.422610 0.068700 -3.861062 -3.383449 -8.737290 10.192598 -2.892204 21.736530 -6.183560 -1.250438 -4.109100 1.620186 -8.138911 -8.166869 -21.592683 14.824079 40.519282 0.244670 9.295190 -0.658180 -17.834427 9.112722 -0.074373 -48.365620 -2.063248 -4.385466 -53.912789 -76.477432 35.837169 -3.751783 3.299011 0.543210 0.106070 -0.114920 0.172830 14.463407 -4.554483 2.843616 58.497462 -4.382209 -12.666802 16.950935 37.113931 3.786061 2.172807 -1.187002 -0.307180 0.291150 0.164360 -0.121390 
